<?xml version="1.0" encoding="utf-8"?>
<!-- Generator: Adobe Illustrator 25.2.0, SVG Export Plug-In . SVG Version: 6.00 Build 0)  -->
<svg version="1.1" id="Layer_1" xmlns="http://www.w3.org/2000/svg" xmlns:xlink="http://www.w3.org/1999/xlink" x="0px" y="0px"
	 viewBox="0 0 24 24" style="enable-background:new 0 0 24 24;" xml:space="preserve">
<style type="text/css">
	.st0{fill:#273C75;}
</style>
<path class="st0" d="M19,20c0,1.1-0.9,2-2,2s-2-0.9-2-2c0-1.1,0.9-2,2-2S19,18.9,19,20 M7,18c-1.1,0-2,0.9-2,2c0,1.1,0.9,2,2,2
	s2-0.9,2-2S8.1,18,7,18 M7.2,14.6l0,0.1c0,0.1,0.1,0.2,0.2,0.2H19v2H7c-1.1,0-2-0.9-2-2c0-0.4,0.1-0.7,0.2-1l1.4-2.4L3,4H1V2h3.3
	l0.9,2H20c0.5,0,1,0.4,1,1c0,0.2,0,0.3-0.1,0.5L17.3,12c-0.3,0.6-1,1-1.7,1H8.1L7.2,14.6 M8.5,11H10V9H7.6L8.5,11 M11,9v2h3V9H11
	 M14,8V6h-3v2H14 M17.1,9H15v2h1L17.1,9 M18.8,6H15v2h2.7L18.8,6 M6.1,6l0.9,2H10V6H6.1z"/>
</svg>
